<svg width="40" height="40" viewBox="0 0 40 40" fill="none" xmlns="http://www.w3.org/2000/svg">
<circle cx="20" cy="20" r="19.5" fill="#6153CC" stroke="#2A2D43"/>
<ellipse cx="19.9999" cy="20" rx="15.5556" ry="15.5556" fill="#796DD4"/>
<path d="M32.1157 26.6526L32.0369 26.4153C32.0391 26.4146 32.032 26.4171 32.0107 26.4191C31.9906 26.4209 31.9634 26.4218 31.9282 26.421C31.8576 26.4192 31.7663 26.4109 31.6558 26.3956C31.4679 26.3697 31.2374 26.3258 30.9811 26.2698L24.9716 8.51297C25.1756 8.27499 25.3774 8.05507 25.5619 7.87987C25.7834 7.6696 25.9492 7.55417 26.0473 7.52235L26.0474 7.52234C26.4516 7.39131 26.7579 7.53228 27.0037 7.7856C27.2593 8.049 27.427 8.41783 27.5033 8.6585L27.5033 8.65854L32.5243 24.4893C32.6308 24.9353 32.669 25.3781 32.5948 25.7304C32.5225 26.0735 32.3512 26.3105 32.0366 26.4154L32.1157 26.6526ZM32.1157 26.6526C32.9552 26.3725 32.9896 25.3542 32.7653 24.4223L30.7894 26.4832C31.417 26.6255 31.939 26.7113 32.1157 26.6526ZM10.8092 19.5252L10.8093 19.5253L12.8423 25.892C12.8803 26.0111 12.8282 26.1437 12.6674 26.2931C12.5925 26.3626 12.5075 26.4219 12.4327 26.4665C12.3956 26.4885 12.3625 26.5061 12.3363 26.5189C12.3233 26.5252 12.3125 26.5301 12.3043 26.5336C12.3027 26.5343 12.3013 26.5349 12.3001 26.5354C11.5453 26.7016 10.7883 26.7786 10.0701 26.5936C9.35802 26.4102 8.65796 25.9623 8.02952 25.026C7.98689 24.95 7.96372 24.9077 7.93608 24.826C7.23056 22.7008 7.42179 21.5018 7.89879 20.7812C8.38388 20.0484 9.20899 19.7336 9.97041 19.4845L9.97073 19.4844C9.99818 19.4754 10.0269 19.4654 10.0566 19.4552C10.1952 19.4074 10.3557 19.352 10.5115 19.3437C10.6006 19.3389 10.6624 19.3522 10.7034 19.3749C10.7376 19.3938 10.7791 19.4307 10.8092 19.5252ZM23.556 10.3132L23.5564 10.3128C23.5839 10.2811 23.6239 10.2306 23.6734 10.1664L29.0297 25.77C28.7953 25.7048 28.5763 25.6429 28.3878 25.5896C28.0862 25.5044 27.8628 25.4412 27.779 25.422L27.7788 25.422C26.942 25.2314 26.0861 25.1185 25.2322 25.0057C24.8906 24.9606 24.5493 24.9156 24.2097 24.8656L24.1503 24.8569L24.1197 24.8672C24.117 24.8674 24.1139 24.8675 24.1105 24.8677C24.085 24.8692 24.0478 24.8707 23.9992 24.8725C23.9024 24.876 23.7663 24.88 23.6016 24.8846C23.534 24.8865 23.4617 24.8884 23.3855 24.8905C23.0914 24.8986 22.7393 24.9082 22.377 24.9199C21.9209 24.9346 21.4464 24.9525 21.0479 24.9747C20.6577 24.9964 20.3183 25.0231 20.147 25.0588L20.147 25.0588L20.1441 25.0595L15.3014 26.1303L14.937 26.1864C14.9014 26.1774 14.865 26.1689 14.8278 26.1602C14.7201 26.135 14.6058 26.1083 14.4837 26.0636C14.3976 26.0321 14.3285 25.9979 14.2794 25.9618C14.2308 25.9262 14.2152 25.8988 14.2101 25.8829C14.2101 25.8829 14.2101 25.8829 14.2101 25.8828L11.8986 18.6428C11.9069 18.556 11.939 18.3981 11.9965 18.2444C12.029 18.1577 12.0653 18.0845 12.1013 18.0327C12.134 17.9857 12.1535 17.9752 12.1533 17.9748L15.1032 17.0108L15.1131 17.0076L15.1227 17.0035C15.8977 16.6766 16.6515 16.2839 17.3826 15.8257C18.0753 15.4506 18.7219 14.945 19.3479 14.4557L19.3586 14.4473L19.3587 14.4474L19.3648 14.4423C20.2219 13.7272 21.1267 12.9231 21.9456 12.0726C22.4941 11.5319 23.0197 10.9288 23.5382 10.3337L23.556 10.3132ZM23.7929 31.6194L23.7925 31.6196C23.7455 31.6353 23.6879 31.6582 23.6204 31.685C23.4437 31.7552 23.2 31.8521 22.9056 31.9166C22.5086 32.0036 22.1219 32.0027 21.8417 31.8121L16.4135 27.0061C16.7152 26.9294 17.0255 26.8492 17.3409 26.7677C18.3694 26.5017 19.4531 26.2215 20.4793 26.003L25.5688 30.9061L25.5687 30.9062L25.5745 30.9114C25.5753 30.9121 25.5761 30.9129 25.5768 30.9136C25.5571 30.9304 25.5296 30.949 25.4963 30.967C25.455 30.9894 25.4168 31.0046 25.3978 31.0109L25.383 31.0159L25.3689 31.0226C24.8868 31.2534 23.9278 31.5745 23.7929 31.6194ZM25.6014 30.9412C25.6014 30.9413 25.6011 30.9408 25.6007 30.9399L25.6014 30.9412ZM25.6019 30.8877C25.6022 30.8871 25.6024 30.8868 25.6025 30.8867L25.6019 30.8877ZM27.7416 8.58296C27.5759 8.06021 27.0085 6.948 25.9703 7.28452L27.7416 8.58296Z" fill="white" stroke="#2A2D43" stroke-width="0.5"/>
</svg>
